<svg version="1.1" xmlns="http://www.w3.org/2000/svg" xmlns:xlink="http://www.w3.org/1999/xlink" width="436" height="955"><defs/><g><g transform="translate(-98,-14) scale(1,1)"><path fill="none" stroke="#000000" d="M 108 444 L 524 444 L 524 959 L 108 959 L 108 444" stroke-miterlimit="10"/></g><g transform="translate(-98,-14) scale(1,1)"><path fill="#ffffff" stroke="none" d="M 108 444 L 108 466 L 194.09716796875 466 L 205.09716796875 455 L 205.09716796875 444 L 108 444"/></g><g transform="translate(-98,-14) scale(1,1)"><path fill="none" stroke="#000000" d="M 108 444 L 108 466 L 194.09716796875 466 L 205.09716796875 455 L 205.09716796875 444 L 108 444 L 108 444" stroke-miterlimit="10"/></g><g transform="translate(-98,-14) scale(1,1)"><g><path fill="none" stroke="none"/><text fill="#000000" stroke="none" font-family="Helvetica" font-size="13px" font-style="normal" font-weight="normal" text-decoration="none" x="119" y="461.5">Control loop</text></g></g><g transform="translate(-98,-14) scale(1,1)"><g><path fill="none" stroke="none"/><text fill="#000000" stroke="none" font-family="Helvetica" font-size="13px" font-style="normal" font-weight="bold" text-decoration="none" x="113" y="461.5"></text></g></g><g transform="translate(-98,-14) scale(1,1)"><path fill="none" stroke="#000000" d="M 108 24 L 524 24 L 524 428 L 108 428 L 108 24" stroke-miterlimit="10"/></g><g transform="translate(-98,-14) scale(1,1)"><path fill="#ffffff" stroke="none" d="M 108 24 L 108 46 L 170.96630859375 46 L 181.96630859375 35 L 181.96630859375 24 L 108 24"/></g><g transform="translate(-98,-14) scale(1,1)"><path fill="none" stroke="#000000" d="M 108 24 L 108 46 L 170.96630859375 46 L 181.96630859375 35 L 181.96630859375 24 L 108 24 L 108 24" stroke-miterlimit="10"/></g><g transform="translate(-98,-14) scale(1,1)"><g><path fill="none" stroke="none"/><text fill="#000000" stroke="none" font-family="Helvetica" font-size="13px" font-style="normal" font-weight="normal" text-decoration="none" x="119" y="41.5">Initialize</text></g></g><g transform="translate(-98,-14) scale(1,1)"><g><path fill="none" stroke="none"/><text fill="#000000" stroke="none" font-family="Helvetica" font-size="13px" font-style="normal" font-weight="bold" text-decoration="none" x="113" y="41.5"></text></g></g><g transform="translate(-98,-14) scale(1,1)"><path fill="#C0C0C0" stroke="none" d="M 384 64.5 C 384 59.2532944 388.2532944 55 393.5 55 C 398.7467056 55 403 59.2532944 403 64.5 C 403 69.7467056 398.7467056 74 393.5 74 C 388.2532944 74 384 69.7467056 384 64.5 Z" opacity="0.2"/></g><g transform="translate(-98,-14) scale(1,1)"><path fill="#000000" stroke="none" d="M 377 57.5 C 377 52.2532944 381.2532944 48 386.5 48 C 391.7467056 48 396 52.2532944 396 57.5 C 396 62.7467056 391.7467056 67 386.5 67 C 381.2532944 67 377 62.7467056 377 57.5 Z"/></g><g transform="translate(-98,-14) scale(1,1)"><path fill="#C0C0C0" stroke="none" d="M 335 223.5 L 393.5 175 L 451 223.5 L 393.5 271 L 335 223.5" opacity="0.2"/></g><g transform="translate(-98,-14) scale(1,1)"><path fill="#ffffff" stroke="none" d="M 328 216 L 386 168 L 444 216 L 386 264 L 328 216"/></g><g transform="translate(-98,-14) scale(1,1)"><path fill="none" stroke="#000000" d="M 328 216 L 386 168 L 444 216 L 386 264 L 328 216 L 328 216" stroke-miterlimit="10"/></g><g transform="translate(-98,-14) scale(1,1)"><g><path fill="none" stroke="none"/><text fill="#000000" stroke="none" font-family="Helvetica" font-size="13px" font-style="normal" font-weight="normal" text-decoration="none" x="369" y="206">Is the</text><text fill="#000000" stroke="none" font-family="Helvetica" font-size="13px" font-style="normal" font-weight="normal" text-decoration="none" x="369" y="219">wall</text><text fill="#000000" stroke="none" font-family="Helvetica" font-size="13px" font-style="normal" font-weight="normal" text-decoration="none" x="369" y="232">here?</text></g></g><g transform="translate(-98,-14) scale(1,1)"><path fill="#C0C0C0" stroke="none" d="M 325 371 L 457 371 Q 467 371 467 381 L 467 401 Q 467 411 457 411 L 325 411 Q 315 411 315 401 L 315 381 Q 315 371 325 371 Z" opacity="0.2"/></g><g transform="translate(-98,-14) scale(1,1)"><path fill="#ffffff" stroke="none" d="M 318 364 L 450 364 Q 460 364 460 374 L 460 394 Q 460 404 450 404 L 318 404 Q 308 404 308 394 L 308 374 Q 308 364 318 364 Z"/></g><g transform="translate(-98,-14) scale(1,1)"><path fill="none" stroke="#000000" d="M 318 364 L 450 364 Q 460 364 460 374 L 460 394 Q 460 404 450 404 L 318 404 Q 308 404 308 394 L 308 374 Q 308 364 318 364 Z" stroke-miterlimit="10"/></g><g transform="translate(-98,-14) scale(1,1)"><g><path fill="none" stroke="none"/><text fill="#000000" stroke="none" font-family="Helvetica" font-size="13px" font-style="normal" font-weight="bold" text-decoration="none" x="333.0537109375" y="383.5">Enter control loop</text></g></g><g transform="translate(-98,-14) scale(1,1)"><path fill="none" stroke="#000000" d="M 445 216 L 496 216 L 496 332 L 384 332 L 384 363" stroke-miterlimit="10"/></g><g transform="translate(-98,-14) scale(1,1)"><path fill="none" stroke="#000000" d="M 379.790482243984 352.83732514237585 L 384 363 L 388.209517756016 352.83732514237585" stroke-miterlimit="10"/></g><g transform="translate(-98,-14) scale(1,1)"><g><path fill="none" stroke="none"/><text fill="#000000" stroke="none" font-family="Helvetica" font-size="13px" font-style="normal" font-weight="normal" text-decoration="none" x="459" y="208">Yes</text></g></g><g transform="translate(-98,-14) scale(1,1)"><path fill="#C0C0C0" stroke="none" d="M 149 263 L 322.54638671875 263 Q 332.54638671875 263 332.54638671875 273 L 332.54638671875 293 Q 332.54638671875 303 322.54638671875 303 L 149 303 Q 139 303 139 293 L 139 273 Q 139 263 149 263 Z" opacity="0.2"/></g><g transform="translate(-98,-14) scale(1,1)"><path fill="#ffffff" stroke="none" d="M 142 256 L 315.54638671875 256 Q 325.54638671875 256 325.54638671875 266 L 325.54638671875 286 Q 325.54638671875 296 315.54638671875 296 L 142 296 Q 132 296 132 286 L 132 266 Q 132 256 142 256 Z"/></g><g transform="translate(-98,-14) scale(1,1)"><path fill="none" stroke="#000000" d="M 142 256 L 315.54638671875 256 Q 325.54638671875 256 325.54638671875 266 L 325.54638671875 286 Q 325.54638671875 296 315.54638671875 296 L 142 296 Q 132 296 132 286 L 132 266 Q 132 256 142 256 Z" stroke-miterlimit="10"/></g><g transform="translate(-98,-14) scale(1,1)"><g><path fill="none" stroke="none"/><text fill="#000000" stroke="none" font-family="Helvetica" font-size="13px" font-style="normal" font-weight="bold" text-decoration="none" x="144.94921875" y="275.5">Set DMS to opposite position</text></g></g><g transform="translate(-98,-14) scale(1,1)"><path fill="none" stroke="#000000" d="M 327 216 L 228 216 L 228 255" stroke-miterlimit="10"/></g><g transform="translate(-98,-14) scale(1,1)"><path fill="none" stroke="#000000" d="M 223.790482243984 244.83732514237585 L 228 255 L 232.209517756016 244.83732514237585" stroke-miterlimit="10"/></g><g transform="translate(-98,-14) scale(1,1)"><g><path fill="none" stroke="none"/><text fill="#000000" stroke="none" font-family="Helvetica" font-size="13px" font-style="normal" font-weight="normal" text-decoration="none" x="275" y="209">No</text></g></g><g transform="translate(-98,-14) scale(1,1)"><path fill="#C0C0C0" stroke="none" d="M 353 103 L 433 103 Q 443 103 443 113 L 443 133 Q 443 143 433 143 L 353 143 Q 343 143 343 133 L 343 113 Q 343 103 353 103 Z" opacity="0.2"/></g><g transform="translate(-98,-14) scale(1,1)"><path fill="#ffffff" stroke="none" d="M 346 96 L 426 96 Q 436 96 436 106 L 436 126 Q 436 136 426 136 L 346 136 Q 336 136 336 126 L 336 106 Q 336 96 346 96 Z"/></g><g transform="translate(-98,-14) scale(1,1)"><path fill="none" stroke="#000000" d="M 346 96 L 426 96 Q 436 96 436 106 L 436 126 Q 436 136 426 136 L 346 136 Q 336 136 336 126 L 336 106 Q 336 96 346 96 Z" stroke-miterlimit="10"/></g><g transform="translate(-98,-14) scale(1,1)"><g><path fill="none" stroke="none"/><text fill="#000000" stroke="none" font-family="Helvetica" font-size="13px" font-style="normal" font-weight="bold" text-decoration="none" x="354.2109375" y="115.5">Read DMS</text></g></g><g transform="translate(-98,-14) scale(1,1)"><path fill="none" stroke="#000000" d="M 386 137 L 386 167" stroke-miterlimit="10"/></g><g transform="translate(-98,-14) scale(1,1)"><path fill="none" stroke="#000000" d="M 381.790482243984 156.83732514237585 L 386 167 L 390.209517756016 156.83732514237585" stroke-miterlimit="10"/></g><g transform="translate(-98,-14) scale(1,1)"><path fill="none" stroke="#000000" d="M 386 68 L 386 95" stroke-miterlimit="10"/></g><g transform="translate(-98,-14) scale(1,1)"><path fill="none" stroke="#000000" d="M 381.790482243984 84.83732514237585 L 386 95 L 390.209517756016 84.83732514237585" stroke-miterlimit="10"/></g><g transform="translate(-98,-14) scale(1,1)"><g><path fill="none" stroke="none"/><text fill="#000000" stroke="none" font-family="Helvetica" font-size="13px" font-style="normal" font-weight="normal" text-decoration="none" x="316" y="60">Turn ON</text></g></g><g transform="translate(-98,-14) scale(1,1)"><path fill="none" stroke="#000000" d="M 228 297 L 228 332 L 384 332 L 384 363" stroke-miterlimit="10"/></g><g transform="translate(-98,-14) scale(1,1)"><path fill="none" stroke="#000000" d="M 379.790482243984 352.83732514237585 L 384 363 L 388.209517756016 352.83732514237585" stroke-miterlimit="10"/></g><g transform="translate(-98,-14) scale(1,1)"><path fill="#C0C0C0" stroke="none" d="M 229 507 L 273 507 Q 283 507 283 517 L 283 537 Q 283 547 273 547 L 229 547 Q 219 547 219 537 L 219 517 Q 219 507 229 507 Z" opacity="0.2"/></g><g transform="translate(-98,-14) scale(1,1)"><path fill="#ffffff" stroke="none" d="M 222 500 L 266 500 Q 276 500 276 510 L 276 530 Q 276 540 266 540 L 222 540 Q 212 540 212 530 L 212 510 Q 212 500 222 500 Z"/></g><g transform="translate(-98,-14) scale(1,1)"><path fill="none" stroke="#000000" d="M 222 500 L 266 500 Q 276 500 276 510 L 276 530 Q 276 540 266 540 L 222 540 Q 212 540 212 530 L 212 510 Q 212 500 222 500 Z" stroke-miterlimit="10"/></g><g transform="translate(-98,-14) scale(1,1)"><g><path fill="none" stroke="none"/><text fill="#000000" stroke="none" font-family="Helvetica" font-size="13px" font-style="normal" font-weight="bold" text-decoration="none" x="222.6845703125" y="519.5">IR read</text></g></g><g transform="translate(-98,-14) scale(1,1)"><path fill="#C0C0C0" stroke="none" d="M 357 607 L 410.29541015625 607 Q 420.29541015625 607 420.29541015625 617 L 420.29541015625 637 Q 420.29541015625 647 410.29541015625 647 L 357 647 Q 347 647 347 637 L 347 617 Q 347 607 357 607 Z" opacity="0.2"/></g><g transform="translate(-98,-14) scale(1,1)"><path fill="#ffffff" stroke="none" d="M 350 600 L 403.29541015625 600 Q 413.29541015625 600 413.29541015625 610 L 413.29541015625 630 Q 413.29541015625 640 403.29541015625 640 L 350 640 Q 340 640 340 630 L 340 610 Q 340 600 350 600 Z"/></g><g transform="translate(-98,-14) scale(1,1)"><path fill="none" stroke="#000000" d="M 350 600 L 403.29541015625 600 Q 413.29541015625 600 413.29541015625 610 L 413.29541015625 630 Q 413.29541015625 640 403.29541015625 640 L 350 640 Q 340 640 340 630 L 340 610 Q 340 600 350 600 Z" stroke-miterlimit="10"/></g><g transform="translate(-98,-14) scale(1,1)"><g><path fill="none" stroke="none"/><text fill="#000000" stroke="none" font-family="Helvetica" font-size="13px" font-style="normal" font-weight="bold" text-decoration="none" x="346.302734375" y="619.5">Turn away</text></g></g><g transform="translate(-98,-14) scale(1,1)"><path fill="#C0C0C0" stroke="none" d="M 225 703 L 273.9599609375 703 Q 283.9599609375 703 283.9599609375 713 L 283.9599609375 733 Q 283.9599609375 743 273.9599609375 743 L 225 743 Q 215 743 215 733 L 215 713 Q 215 703 225 703 Z" opacity="0.2"/></g><g transform="translate(-98,-14) scale(1,1)"><path fill="#ffffff" stroke="none" d="M 218 696 L 266.9599609375 696 Q 276.9599609375 696 276.9599609375 706 L 276.9599609375 726 Q 276.9599609375 736 266.9599609375 736 L 218 736 Q 208 736 208 726 L 208 706 Q 208 696 218 696 Z"/></g><g transform="translate(-98,-14) scale(1,1)"><path fill="none" stroke="#000000" d="M 218 696 L 266.9599609375 696 Q 276.9599609375 696 276.9599609375 706 L 276.9599609375 726 Q 276.9599609375 736 266.9599609375 736 L 218 736 Q 208 736 208 726 L 208 706 Q 208 696 218 696 Z" stroke-miterlimit="10"/></g><g transform="translate(-98,-14) scale(1,1)"><g><path fill="none" stroke="none"/><text fill="#000000" stroke="none" font-family="Helvetica" font-size="13px" font-style="normal" font-weight="bold" text-decoration="none" x="213.220458984375" y="715.5">DMS read</text></g></g><g transform="translate(-98,-14) scale(1,1)"><path fill="#C0C0C0" stroke="none" d="M 357 795 L 457 795 Q 467 795 467 805 L 467 825 Q 467 835 457 835 L 357 835 Q 347 835 347 825 L 347 805 Q 347 795 357 795 Z" opacity="0.2"/></g><g transform="translate(-98,-14) scale(1,1)"><path fill="#ffffff" stroke="none" d="M 350 788 L 450 788 Q 460 788 460 798 L 460 818 Q 460 828 450 828 L 350 828 Q 340 828 340 818 L 340 798 Q 340 788 350 788 Z"/></g><g transform="translate(-98,-14) scale(1,1)"><path fill="none" stroke="#000000" d="M 350 788 L 450 788 Q 460 788 460 798 L 460 818 Q 460 828 450 828 L 350 828 Q 340 828 340 818 L 340 798 Q 340 788 350 788 Z" stroke-miterlimit="10"/></g><g transform="translate(-98,-14) scale(1,1)"><g><path fill="none" stroke="none"/><text fill="#000000" stroke="none" font-family="Helvetica" font-size="13px" font-style="normal" font-weight="bold" text-decoration="none" x="353.0400390625" y="807.5">Adjust into limits</text></g></g><g transform="translate(-98,-14) scale(1,1)"><path fill="#C0C0C0" stroke="none" d="M 195 626 L 249.5 579 L 303 626 L 249.5 672 L 195 626" opacity="0.2"/></g><g transform="translate(-98,-14) scale(1,1)"><path fill="#ffffff" stroke="none" d="M 188 618.5 L 242 572 L 296 618.5 L 242 665 L 188 618.5"/></g><g transform="translate(-98,-14) scale(1,1)"><path fill="none" stroke="#000000" d="M 188 618.5 L 242 572 L 296 618.5 L 242 665 L 188 618.5 L 188 618.5" stroke-miterlimit="10"/></g><g transform="translate(-98,-14) scale(1,1)"><path fill="none" stroke="#000000" d="M 244 541 L 243 571" stroke-miterlimit="10"/></g><g transform="translate(-98,-14) scale(1,1)"><path fill="none" stroke="#000000" d="M 239.13138670550276 560.7027270028594 L 243 571 L 247.54574886967976 560.9832057416654" stroke-miterlimit="10"/></g><g transform="translate(-98,-14) scale(1,1)"><g><path fill="none" stroke="none"/><text fill="#000000" stroke="none" font-family="Helvetica" font-size="13px" font-style="normal" font-weight="normal" text-decoration="none" x="217" y="618">IR detect</text><text fill="#000000" stroke="none" font-family="Helvetica" font-size="13px" font-style="normal" font-weight="normal" text-decoration="none" x="217" y="631">obstacle?</text></g></g><g transform="translate(-98,-14) scale(1,1)"><path fill="none" stroke="#000000" d="M 242 666 L 242 695" stroke-miterlimit="10"/></g><g transform="translate(-98,-14) scale(1,1)"><path fill="none" stroke="#000000" d="M 237.790482243984 684.8373251423759 L 242 695 L 246.209517756016 684.8373251423759" stroke-miterlimit="10"/></g><g transform="translate(-98,-14) scale(1,1)"><g><path fill="none" stroke="none"/><text fill="#000000" stroke="none" font-family="Helvetica" font-size="13px" font-style="normal" font-weight="normal" text-decoration="none" x="251" y="681">No</text></g></g><g transform="translate(-98,-14) scale(1,1)"><path fill="none" stroke="#000000" d="M 297 619 L 339 619" stroke-miterlimit="10"/></g><g transform="translate(-98,-14) scale(1,1)"><path fill="none" stroke="#000000" d="M 328.83732514237585 623.209517756016 L 339 619 L 328.83732514237585 614.790482243984" stroke-miterlimit="10"/></g><g transform="translate(-98,-14) scale(1,1)"><g><path fill="none" stroke="none"/><text fill="#000000" stroke="none" font-family="Helvetica" font-size="13px" font-style="normal" font-weight="normal" text-decoration="none" x="299" y="610">Yes</text></g></g><g transform="translate(-98,-14) scale(1,1)"><path fill="#C0C0C0" stroke="none" d="M 195 815.5 L 249.5 767 L 303 815.5 L 249.5 863 L 195 815.5" opacity="0.2"/></g><g transform="translate(-98,-14) scale(1,1)"><path fill="#ffffff" stroke="none" d="M 188 808 L 242 760 L 296 808 L 242 856 L 188 808"/></g><g transform="translate(-98,-14) scale(1,1)"><path fill="none" stroke="#000000" d="M 188 808 L 242 760 L 296 808 L 242 856 L 188 808 L 188 808" stroke-miterlimit="10"/></g><g transform="translate(-98,-14) scale(1,1)"><path fill="none" stroke="#000000" d="M 242 737 L 242 759" stroke-miterlimit="10"/></g><g transform="translate(-98,-14) scale(1,1)"><path fill="none" stroke="#000000" d="M 237.790482243984 748.8373251423759 L 242 759 L 246.209517756016 748.8373251423759" stroke-miterlimit="10"/></g><g transform="translate(-98,-14) scale(1,1)"><g><path fill="none" stroke="none"/><text fill="#000000" stroke="none" font-family="Helvetica" font-size="13px" font-style="normal" font-weight="normal" text-decoration="none" x="209" y="802">DMS detect</text><text fill="#000000" stroke="none" font-family="Helvetica" font-size="13px" font-style="normal" font-weight="normal" text-decoration="none" x="209" y="815">wall outside</text><text fill="#000000" stroke="none" font-family="Helvetica" font-size="13px" font-style="normal" font-weight="normal" text-decoration="none" x="209" y="828">limits?</text></g></g><g transform="translate(-98,-14) scale(1,1)"><path fill="none" stroke="#000000" d="M 297 808 L 339 808" stroke-miterlimit="10"/></g><g transform="translate(-98,-14) scale(1,1)"><path fill="none" stroke="#000000" d="M 328.83732514237585 812.209517756016 L 339 808 L 328.83732514237585 803.790482243984" stroke-miterlimit="10"/></g><g transform="translate(-98,-14) scale(1,1)"><g><path fill="none" stroke="none"/><text fill="#000000" stroke="none" font-family="Helvetica" font-size="13px" font-style="normal" font-weight="normal" text-decoration="none" x="301" y="800">Yes</text></g></g><g transform="translate(-98,-14) scale(1,1)"><path fill="#C0C0C0" stroke="none" d="M 213 903 L 285 903 Q 295 903 295 913 L 295 933 Q 295 943 285 943 L 213 943 Q 203 943 203 933 L 203 913 Q 203 903 213 903 Z" opacity="0.2"/></g><g transform="translate(-98,-14) scale(1,1)"><path fill="#ffffff" stroke="none" d="M 206 896 L 278 896 Q 288 896 288 906 L 288 926 Q 288 936 278 936 L 206 936 Q 196 936 196 926 L 196 906 Q 196 896 206 896 Z"/></g><g transform="translate(-98,-14) scale(1,1)"><path fill="none" stroke="#000000" d="M 206 896 L 278 896 Q 288 896 288 906 L 288 926 Q 288 936 278 936 L 206 936 Q 196 936 196 926 L 196 906 Q 196 896 206 896 Z" stroke-miterlimit="10"/></g><g transform="translate(-98,-14) scale(1,1)"><g><path fill="none" stroke="none"/><text fill="#000000" stroke="none" font-family="Helvetica" font-size="13px" font-style="normal" font-weight="bold" text-decoration="none" x="210.214111328125" y="915.5">Follow wall</text></g></g><g transform="translate(-98,-14) scale(1,1)"><path fill="none" stroke="#000000" d="M 242 857 L 242 895" stroke-miterlimit="10"/></g><g transform="translate(-98,-14) scale(1,1)"><path fill="none" stroke="#000000" d="M 237.790482243984 884.8373251423759 L 242 895 L 246.209517756016 884.8373251423759" stroke-miterlimit="10"/></g><g transform="translate(-98,-14) scale(1,1)"><g><path fill="none" stroke="none"/><text fill="#000000" stroke="none" font-family="Helvetica" font-size="13px" font-style="normal" font-weight="normal" text-decoration="none" x="251" y="877">No</text></g></g><g transform="translate(-98,-14) scale(1,1)"><path fill="none" stroke="#000000" d="M 376 599 L 376 520 L 277 520" stroke-miterlimit="10"/></g><g transform="translate(-98,-14) scale(1,1)"><path fill="none" stroke="#000000" d="M 287.16267485762415 515.790482243984 L 277 520 L 287.16267485762415 524.209517756016" stroke-miterlimit="10"/></g><g transform="translate(-98,-14) scale(1,1)"><path fill="none" stroke="#000000" d="M 400 787 L 400 712 L 480 712 L 480 520 L 277 520" stroke-miterlimit="10"/></g><g transform="translate(-98,-14) scale(1,1)"><path fill="none" stroke="#000000" d="M 287.16267485762415 515.790482243984 L 277 520 L 287.16267485762415 524.209517756016" stroke-miterlimit="10"/></g><g transform="translate(-98,-14) scale(1,1)"><path fill="none" stroke="#000000" d="M 289 916 L 480 916 L 480 520 L 277 520" stroke-miterlimit="10"/></g><g transform="translate(-98,-14) scale(1,1)"><path fill="none" stroke="#000000" d="M 287.16267485762415 515.790482243984 L 277 520 L 287.16267485762415 524.209517756016" stroke-miterlimit="10"/></g></g></svg>