<svg version="1.1" xmlns="http://www.w3.org/2000/svg" xmlns:xlink="http://www.w3.org/1999/xlink" width="611" height="616"><defs/><g><g transform="translate(-10,-18) scale(1,1)"><rect fill="#C0C0C0" stroke="none" x="27" y="35" width="185.6" height="15" opacity="0.2"/></g><g transform="translate(-10,-18) scale(1,1)"><rect fill="#C0C0C0" stroke="none" x="27" y="49" width="464" height="582" opacity="0.2"/></g><g transform="translate(-10,-18) scale(1,1)"><rect fill="#ffffff" stroke="none" x="20" y="43" width="464" height="581"/></g><g transform="translate(-10,-18) scale(1,1)"><path fill="none" stroke="#000000" d="M 20 43 L 484 43 L 484 624 L 20 624 L 20 43 Z Z" stroke-miterlimit="10"/></g><g transform="translate(-10,-18) scale(1,1)"><rect fill="#ffffff" stroke="none" x="20" y="28" width="185.6" height="15"/></g><g transform="translate(-10,-18) scale(1,1)"><path fill="none" stroke="#000000" d="M 20 28 L 205.6 28 L 205.6 43 L 20 43 L 20 28 Z Z" stroke-miterlimit="10"/></g><g transform="translate(-10,-18) scale(1,1)"><rect fill="#ffffff" stroke="none" x="20" y="42" width="464" height="582"/></g><g transform="translate(-10,-18) scale(1,1)"><path fill="none" stroke="#000000" d="M 20 42 L 484 42 L 484 624 L 20 624 L 20 42 Z Z" stroke-miterlimit="10"/></g><g transform="translate(-10,-18) scale(1,1)"><path fill="none" stroke="#000000" d="M 196.6 31 L 190.6 38 L 202.6 38 L 196.6 31" stroke-miterlimit="10"/></g><g transform="translate(-10,-18) scale(1,1)"><g><path fill="none" stroke="none"/><text fill="#000000" stroke="none" font-family="Helvetica" font-size="13px" font-style="normal" font-weight="bold" text-decoration="none" x="234.299560546875" y="62.5">Task1</text></g></g><g transform="translate(-10,-18) scale(1,1)"><rect fill="#C0C0C0" stroke="none" x="43" y="459" width="80" height="15" opacity="0.2"/></g><g transform="translate(-10,-18) scale(1,1)"><rect fill="#C0C0C0" stroke="none" x="43" y="473" width="200" height="142" opacity="0.2"/></g><g transform="translate(-10,-18) scale(1,1)"><rect fill="#ffffff" stroke="none" x="36" y="467" width="200" height="141"/></g><g transform="translate(-10,-18) scale(1,1)"><path fill="none" stroke="#000000" d="M 36 467 L 236 467 L 236 608 L 36 608 L 36 467 Z Z" stroke-miterlimit="10"/></g><g transform="translate(-10,-18) scale(1,1)"><rect fill="#ffffff" stroke="none" x="36" y="452" width="80" height="15"/></g><g transform="translate(-10,-18) scale(1,1)"><path fill="none" stroke="#000000" d="M 36 452 L 116 452 L 116 467 L 36 467 L 36 452 Z Z" stroke-miterlimit="10"/></g><g transform="translate(-10,-18) scale(1,1)"><rect fill="#ffffff" stroke="none" x="36" y="466" width="200" height="142"/></g><g transform="translate(-10,-18) scale(1,1)"><path fill="none" stroke="#000000" d="M 36 466 L 236 466 L 236 608 L 36 608 L 36 466 Z Z" stroke-miterlimit="10"/></g><g transform="translate(-10,-18) scale(1,1)"><path fill="none" stroke="#000000" d="M 107 455 L 101 462 L 113 462 L 107 455" stroke-miterlimit="10"/></g><g transform="translate(-10,-18) scale(1,1)"><g><path fill="none" stroke="none"/><text fill="#000000" stroke="none" font-family="Helvetica" font-size="13px" font-style="normal" font-weight="bold" text-decoration="none" x="112.155029296875" y="486.5">Sensors</text></g></g><g transform="translate(-10,-18) scale(1,1)"><rect fill="#C0C0C0" stroke="none" x="59" y="515" width="30" height="15" opacity="0.2"/></g><g transform="translate(-10,-18) scale(1,1)"><rect fill="#C0C0C0" stroke="none" x="59" y="529" width="75" height="69" opacity="0.2"/></g><g transform="translate(-10,-18) scale(1,1)"><rect fill="#ffffff" stroke="none" x="52" y="523" width="75" height="68"/></g><g transform="translate(-10,-18) scale(1,1)"><path fill="none" stroke="#000000" d="M 52 523 L 127 523 L 127 591 L 52 591 L 52 523 Z Z" stroke-miterlimit="10"/></g><g transform="translate(-10,-18) scale(1,1)"><rect fill="#ffffff" stroke="none" x="52" y="508" width="30" height="15"/></g><g transform="translate(-10,-18) scale(1,1)"><path fill="none" stroke="#000000" d="M 52 508 L 82 508 L 82 523 L 52 523 L 52 508 Z Z" stroke-miterlimit="10"/></g><g transform="translate(-10,-18) scale(1,1)"><rect fill="#ffffff" stroke="none" x="52" y="522" width="75" height="69"/></g><g transform="translate(-10,-18) scale(1,1)"><path fill="none" stroke="#000000" d="M 52 522 L 127 522 L 127 591 L 52 591 L 52 522 Z Z" stroke-miterlimit="10"/></g><g transform="translate(-10,-18) scale(1,1)"><g><path fill="none" stroke="none"/><text fill="#000000" stroke="none" font-family="Helvetica" font-size="13px" font-style="normal" font-weight="bold" text-decoration="none" x="83" y="542.5">IR</text></g></g><g transform="translate(-10,-18) scale(1,1)"><rect fill="#C0C0C0" stroke="none" x="43" y="259" width="172.8" height="15" opacity="0.2"/></g><g transform="translate(-10,-18) scale(1,1)"><rect fill="#C0C0C0" stroke="none" x="43" y="273" width="432" height="170" opacity="0.2"/></g><g transform="translate(-10,-18) scale(1,1)"><rect fill="#ffffff" stroke="none" x="36" y="267" width="432" height="169"/></g><g transform="translate(-10,-18) scale(1,1)"><path fill="none" stroke="#000000" d="M 36 267 L 468 267 L 468 436 L 36 436 L 36 267 Z Z" stroke-miterlimit="10"/></g><g transform="translate(-10,-18) scale(1,1)"><rect fill="#ffffff" stroke="none" x="36" y="252" width="172.8" height="15"/></g><g transform="translate(-10,-18) scale(1,1)"><path fill="none" stroke="#000000" d="M 36 252 L 208.8 252 L 208.8 267 L 36 267 L 36 252 Z Z" stroke-miterlimit="10"/></g><g transform="translate(-10,-18) scale(1,1)"><rect fill="#ffffff" stroke="none" x="36" y="266" width="432" height="170"/></g><g transform="translate(-10,-18) scale(1,1)"><path fill="none" stroke="#000000" d="M 36 266 L 468 266 L 468 436 L 36 436 L 36 266 Z Z" stroke-miterlimit="10"/></g><g transform="translate(-10,-18) scale(1,1)"><path fill="none" stroke="#000000" d="M 199.8 255 L 193.8 262 L 205.8 262 L 199.8 255" stroke-miterlimit="10"/></g><g transform="translate(-10,-18) scale(1,1)"><g><path fill="none" stroke="none"/><text fill="#000000" stroke="none" font-family="Helvetica" font-size="13px" font-style="normal" font-weight="bold" text-decoration="none" x="224.917724609375" y="286.5">Firmware</text></g></g><g transform="translate(-10,-18) scale(1,1)"><rect fill="#C0C0C0" stroke="none" x="83" y="111" width="51.19999999999999" height="15" opacity="0.2"/></g><g transform="translate(-10,-18) scale(1,1)"><rect fill="#C0C0C0" stroke="none" x="83" y="125" width="128" height="82" opacity="0.2"/></g><g transform="translate(-10,-18) scale(1,1)"><rect fill="#ffffff" stroke="none" x="76" y="119" width="128" height="81"/></g><g transform="translate(-10,-18) scale(1,1)"><path fill="none" stroke="#000000" d="M 76 119 L 204 119 L 204 200 L 76 200 L 76 119 Z Z" stroke-miterlimit="10"/></g><g transform="translate(-10,-18) scale(1,1)"><rect fill="#ffffff" stroke="none" x="76" y="104" width="51.2" height="15"/></g><g transform="translate(-10,-18) scale(1,1)"><path fill="none" stroke="#000000" d="M 76 104 L 127.2 104 L 127.2 119 L 76 119 L 76 104 Z Z" stroke-miterlimit="10"/></g><g transform="translate(-10,-18) scale(1,1)"><rect fill="#ffffff" stroke="none" x="76" y="118" width="128" height="82"/></g><g transform="translate(-10,-18) scale(1,1)"><path fill="none" stroke="#000000" d="M 76 118 L 204 118 L 204 200 L 76 200 L 76 118 Z Z" stroke-miterlimit="10"/></g><g transform="translate(-10,-18) scale(1,1)"><g><path fill="none" stroke="none"/><text fill="#000000" stroke="none" font-family="Helvetica" font-size="13px" font-style="normal" font-weight="bold" text-decoration="none" x="111.089599609375" y="138.5">Package1</text></g></g><g transform="translate(-10,-18) scale(1,1)"><rect fill="#C0C0C0" stroke="none" x="259" y="459" width="86.39999999999998" height="15" opacity="0.2"/></g><g transform="translate(-10,-18) scale(1,1)"><rect fill="#C0C0C0" stroke="none" x="259" y="473" width="216" height="142" opacity="0.2"/></g><g transform="translate(-10,-18) scale(1,1)"><rect fill="#ffffff" stroke="none" x="252" y="467" width="216" height="141"/></g><g transform="translate(-10,-18) scale(1,1)"><path fill="none" stroke="#000000" d="M 252 467 L 468 467 L 468 608 L 252 608 L 252 467 Z Z" stroke-miterlimit="10"/></g><g transform="translate(-10,-18) scale(1,1)"><rect fill="#ffffff" stroke="none" x="252" y="452" width="86.39999999999998" height="15"/></g><g transform="translate(-10,-18) scale(1,1)"><path fill="none" stroke="#000000" d="M 252 452 L 338.4 452 L 338.4 467 L 252 467 L 252 452 Z Z" stroke-miterlimit="10"/></g><g transform="translate(-10,-18) scale(1,1)"><rect fill="#ffffff" stroke="none" x="252" y="466" width="216" height="142"/></g><g transform="translate(-10,-18) scale(1,1)"><path fill="none" stroke="#000000" d="M 252 466 L 468 466 L 468 608 L 252 608 L 252 466 Z Z" stroke-miterlimit="10"/></g><g transform="translate(-10,-18) scale(1,1)"><path fill="none" stroke="#000000" d="M 329.4 455 L 323.4 462 L 335.4 462 L 329.4 455" stroke-miterlimit="10"/></g><g transform="translate(-10,-18) scale(1,1)"><g><path fill="none" stroke="none"/><text fill="#000000" stroke="none" font-family="Helvetica" font-size="13px" font-style="normal" font-weight="bold" text-decoration="none" x="332.543212890625" y="486.5">Actuators</text></g></g><g transform="translate(-10,-18) scale(1,1)"><rect fill="#C0C0C0" stroke="none" x="43" y="87" width="172.8" height="15" opacity="0.2"/></g><g transform="translate(-10,-18) scale(1,1)"><rect fill="#C0C0C0" stroke="none" x="43" y="101" width="432" height="142" opacity="0.2"/></g><g transform="translate(-10,-18) scale(1,1)"><rect fill="#ffffff" stroke="none" x="36" y="95" width="432" height="141"/></g><g transform="translate(-10,-18) scale(1,1)"><path fill="none" stroke="#000000" d="M 36 95 L 468 95 L 468 236 L 36 236 L 36 95 Z Z" stroke-miterlimit="10"/></g><g transform="translate(-10,-18) scale(1,1)"><rect fill="#ffffff" stroke="none" x="36" y="80" width="172.8" height="15"/></g><g transform="translate(-10,-18) scale(1,1)"><path fill="none" stroke="#000000" d="M 36 80 L 208.8 80 L 208.8 95 L 36 95 L 36 80 Z Z" stroke-miterlimit="10"/></g><g transform="translate(-10,-18) scale(1,1)"><rect fill="#ffffff" stroke="none" x="36" y="94" width="432" height="142"/></g><g transform="translate(-10,-18) scale(1,1)"><path fill="none" stroke="#000000" d="M 36 94 L 468 94 L 468 236 L 36 236 L 36 94 Z Z" stroke-miterlimit="10"/></g><g transform="translate(-10,-18) scale(1,1)"><path fill="none" stroke="#000000" d="M 199.8 83 L 193.8 90 L 205.8 90 L 199.8 83" stroke-miterlimit="10"/></g><g transform="translate(-10,-18) scale(1,1)"><g><path fill="none" stroke="none"/><text fill="#000000" stroke="none" font-family="Helvetica" font-size="13px" font-style="normal" font-weight="bold" text-decoration="none" x="222.73095703125" y="114.5">Behaviour</text></g></g><g transform="translate(-10,-18) scale(1,1)"><rect fill="#C0C0C0" stroke="none" x="259" y="379" width="80" height="15" opacity="0.2"/></g><g transform="translate(-10,-18) scale(1,1)"><rect fill="#C0C0C0" stroke="none" x="259" y="393" width="200" height="34" opacity="0.2"/></g><g transform="translate(-10,-18) scale(1,1)"><rect fill="#ffffff" stroke="none" x="252" y="387" width="200" height="33"/></g><g transform="translate(-10,-18) scale(1,1)"><path fill="none" stroke="#000000" d="M 252 387 L 452 387 L 452 420 L 252 420 L 252 387 Z Z" stroke-miterlimit="10"/></g><g transform="translate(-10,-18) scale(1,1)"><rect fill="#ffffff" stroke="none" x="252" y="372" width="80" height="15"/></g><g transform="translate(-10,-18) scale(1,1)"><path fill="none" stroke="#000000" d="M 252 372 L 332 372 L 332 387 L 252 387 L 252 372 Z Z" stroke-miterlimit="10"/></g><g transform="translate(-10,-18) scale(1,1)"><rect fill="#ffffff" stroke="none" x="252" y="386" width="200" height="34"/></g><g transform="translate(-10,-18) scale(1,1)"><path fill="none" stroke="#000000" d="M 252 386 L 452 386 L 452 420 L 252 420 L 252 386 Z Z" stroke-miterlimit="10"/></g><g transform="translate(-10,-18) scale(1,1)"><path fill="none" stroke="#000000" d="M 324 375 L 324 379" stroke-miterlimit="10"/></g><g transform="translate(-10,-18) scale(1,1)"><path fill="none" stroke="#000000" d="M 321 383 L 321 379 L 327 379" stroke-miterlimit="10"/></g><g transform="translate(-10,-18) scale(1,1)"><path fill="none" stroke="#000000" d="M 327 383 L 327 379 L 321 379" stroke-miterlimit="10"/></g><g transform="translate(-10,-18) scale(1,1)"><g><path fill="none" stroke="none"/><text fill="#000000" stroke="none" font-family="Helvetica" font-size="13px" font-style="normal" font-weight="bold" text-decoration="none" x="334.299560546875" y="406.5">DXL.c</text></g></g><g transform="translate(-10,-18) scale(1,1)"><rect fill="#C0C0C0" stroke="none" x="59" y="127" width="160" height="15" opacity="0.2"/></g><g transform="translate(-10,-18) scale(1,1)"><rect fill="#C0C0C0" stroke="none" x="59" y="141" width="400" height="86" opacity="0.2"/></g><g transform="translate(-10,-18) scale(1,1)"><rect fill="#ffffff" stroke="none" x="52" y="135" width="400" height="85"/></g><g transform="translate(-10,-18) scale(1,1)"><path fill="none" stroke="#000000" d="M 52 135 L 452 135 L 452 220 L 52 220 L 52 135 Z Z" stroke-miterlimit="10"/></g><g transform="translate(-10,-18) scale(1,1)"><rect fill="#ffffff" stroke="none" x="52" y="120" width="160" height="15"/></g><g transform="translate(-10,-18) scale(1,1)"><path fill="none" stroke="#000000" d="M 52 120 L 212 120 L 212 135 L 52 135 L 52 120 Z Z" stroke-miterlimit="10"/></g><g transform="translate(-10,-18) scale(1,1)"><rect fill="#ffffff" stroke="none" x="52" y="134" width="400" height="86"/></g><g transform="translate(-10,-18) scale(1,1)"><path fill="none" stroke="#000000" d="M 52 134 L 452 134 L 452 220 L 52 220 L 52 134 Z Z" stroke-miterlimit="10"/></g><g transform="translate(-10,-18) scale(1,1)"><g><path fill="none" stroke="none"/><text fill="#000000" stroke="none" font-family="Helvetica" font-size="13px" font-style="normal" font-weight="bold" text-decoration="none" x="232.85546875" y="154.5">main.c</text></g></g><g transform="translate(-10,-18) scale(1,1)"><rect fill="#C0C0C0" stroke="none" x="259" y="315" width="80" height="15" opacity="0.2"/></g><g transform="translate(-10,-18) scale(1,1)"><rect fill="#C0C0C0" stroke="none" x="259" y="329" width="200" height="34" opacity="0.2"/></g><g transform="translate(-10,-18) scale(1,1)"><rect fill="#ffffff" stroke="none" x="252" y="323" width="200" height="33"/></g><g transform="translate(-10,-18) scale(1,1)"><path fill="none" stroke="#000000" d="M 252 323 L 452 323 L 452 356 L 252 356 L 252 323 Z Z" stroke-miterlimit="10"/></g><g transform="translate(-10,-18) scale(1,1)"><rect fill="#ffffff" stroke="none" x="252" y="308" width="80" height="15"/></g><g transform="translate(-10,-18) scale(1,1)"><path fill="none" stroke="#000000" d="M 252 308 L 332 308 L 332 323 L 252 323 L 252 308 Z Z" stroke-miterlimit="10"/></g><g transform="translate(-10,-18) scale(1,1)"><rect fill="#ffffff" stroke="none" x="252" y="322" width="200" height="34"/></g><g transform="translate(-10,-18) scale(1,1)"><path fill="none" stroke="#000000" d="M 252 322 L 452 322 L 452 356 L 252 356 L 252 322 Z Z" stroke-miterlimit="10"/></g><g transform="translate(-10,-18) scale(1,1)"><g><path fill="none" stroke="none"/><text fill="#000000" stroke="none" font-family="Helvetica" font-size="13px" font-style="normal" font-weight="bold" text-decoration="none" x="314.069580078125" y="342.5">Motor control</text></g></g><g transform="translate(-10,-18) scale(1,1)"><rect fill="#C0C0C0" stroke="none" x="59" y="315" width="73.6" height="15" opacity="0.2"/></g><g transform="translate(-10,-18) scale(1,1)"><rect fill="#C0C0C0" stroke="none" x="59" y="329" width="184" height="97" opacity="0.2"/></g><g transform="translate(-10,-18) scale(1,1)"><rect fill="#ffffff" stroke="none" x="52" y="323" width="184" height="96"/></g><g transform="translate(-10,-18) scale(1,1)"><path fill="none" stroke="#000000" d="M 52 323 L 236 323 L 236 419 L 52 419 L 52 323 Z Z" stroke-miterlimit="10"/></g><g transform="translate(-10,-18) scale(1,1)"><rect fill="#ffffff" stroke="none" x="52" y="308" width="73.6" height="15"/></g><g transform="translate(-10,-18) scale(1,1)"><path fill="none" stroke="#000000" d="M 52 308 L 125.6 308 L 125.6 323 L 52 323 L 52 308 Z Z" stroke-miterlimit="10"/></g><g transform="translate(-10,-18) scale(1,1)"><rect fill="#ffffff" stroke="none" x="52" y="322" width="184" height="97"/></g><g transform="translate(-10,-18) scale(1,1)"><path fill="none" stroke="#000000" d="M 52 322 L 236 322 L 236 419 L 52 419 L 52 322 Z Z" stroke-miterlimit="10"/></g><g transform="translate(-10,-18) scale(1,1)"><g><path fill="none" stroke="none"/><text fill="#000000" stroke="none" font-family="Helvetica" font-size="13px" font-style="normal" font-weight="bold" text-decoration="none" x="130.2763671875" y="342.5">ADC</text></g></g><g transform="translate(-10,-18) scale(1,1)"><path fill="none" stroke="#000000" d="M 141 452 L 141 419" stroke-miterlimit="10" stroke-dasharray="3"/></g><g transform="translate(-10,-18) scale(1,1)"><path fill="none" stroke="#000000" d="M 350 452 L 350 420" stroke-miterlimit="10" stroke-dasharray="3"/></g><g transform="translate(-10,-18) scale(1,1)"><path fill="none" stroke="#000000" d="M 252 251 L 252 221" stroke-miterlimit="10" stroke-dasharray="3"/></g><g transform="translate(-10,-18) scale(1,1)"><g><path fill="none" stroke="none"/><text fill="#000000" stroke="none" font-family="Helvetica" font-size="13px" font-style="normal" font-weight="normal" text-decoration="none" x="69" y="558">Short</text><text fill="#000000" stroke="none" font-family="Helvetica" font-size="13px" font-style="normal" font-weight="normal" text-decoration="none" x="69" y="571">range</text><text fill="#000000" stroke="none" font-family="Helvetica" font-size="13px" font-style="normal" font-weight="normal" text-decoration="none" x="69" y="584">DMS</text></g></g><g transform="translate(-10,-18) scale(1,1)"><rect fill="#C0C0C0" stroke="none" x="151" y="515" width="30" height="15" opacity="0.2"/></g><g transform="translate(-10,-18) scale(1,1)"><rect fill="#C0C0C0" stroke="none" x="151" y="529" width="75" height="69" opacity="0.2"/></g><g transform="translate(-10,-18) scale(1,1)"><rect fill="#ffffff" stroke="none" x="144" y="523" width="75" height="68"/></g><g transform="translate(-10,-18) scale(1,1)"><path fill="none" stroke="#000000" d="M 144 523 L 219 523 L 219 591 L 144 591 L 144 523 Z Z" stroke-miterlimit="10"/></g><g transform="translate(-10,-18) scale(1,1)"><rect fill="#ffffff" stroke="none" x="144" y="508" width="30" height="15"/></g><g transform="translate(-10,-18) scale(1,1)"><path fill="none" stroke="#000000" d="M 144 508 L 174 508 L 174 523 L 144 523 L 144 508 Z Z" stroke-miterlimit="10"/></g><g transform="translate(-10,-18) scale(1,1)"><rect fill="#ffffff" stroke="none" x="144" y="522" width="75" height="69"/></g><g transform="translate(-10,-18) scale(1,1)"><path fill="none" stroke="#000000" d="M 144 522 L 219 522 L 219 591 L 144 591 L 144 522 Z Z" stroke-miterlimit="10"/></g><g transform="translate(-10,-18) scale(1,1)"><g><path fill="none" stroke="none"/><text fill="#000000" stroke="none" font-family="Helvetica" font-size="13px" font-style="normal" font-weight="bold" text-decoration="none" x="175" y="542.5">IR</text></g></g><g transform="translate(-10,-18) scale(1,1)"><g><path fill="none" stroke="none"/><text fill="#000000" stroke="none" font-family="Helvetica" font-size="13px" font-style="normal" font-weight="normal" text-decoration="none" x="161" y="558">Long</text><text fill="#000000" stroke="none" font-family="Helvetica" font-size="13px" font-style="normal" font-weight="normal" text-decoration="none" x="161" y="571">range</text><text fill="#000000" stroke="none" font-family="Helvetica" font-size="13px" font-style="normal" font-weight="normal" text-decoration="none" x="161" y="584">DMS</text></g></g><g transform="translate(-10,-18) scale(1,1)"><rect fill="#C0C0C0" stroke="none" x="275" y="507" width="73.19999999999999" height="15" opacity="0.2"/></g><g transform="translate(-10,-18) scale(1,1)"><rect fill="#C0C0C0" stroke="none" x="275" y="521" width="183" height="77" opacity="0.2"/></g><g transform="translate(-10,-18) scale(1,1)"><rect fill="#ffffff" stroke="none" x="268" y="515" width="183" height="76"/></g><g transform="translate(-10,-18) scale(1,1)"><path fill="none" stroke="#000000" d="M 268 515 L 451 515 L 451 591 L 268 591 L 268 515 Z Z" stroke-miterlimit="10"/></g><g transform="translate(-10,-18) scale(1,1)"><rect fill="#ffffff" stroke="none" x="268" y="500" width="73.19999999999999" height="15"/></g><g transform="translate(-10,-18) scale(1,1)"><path fill="none" stroke="#000000" d="M 268 500 L 341.2 500 L 341.2 515 L 268 515 L 268 500 Z Z" stroke-miterlimit="10"/></g><g transform="translate(-10,-18) scale(1,1)"><rect fill="#ffffff" stroke="none" x="268" y="514" width="183" height="77"/></g><g transform="translate(-10,-18) scale(1,1)"><path fill="none" stroke="#000000" d="M 268 514 L 451 514 L 451 591 L 268 591 L 268 514 Z Z" stroke-miterlimit="10"/></g><g transform="translate(-10,-18) scale(1,1)"><g><path fill="none" stroke="none"/><text fill="#000000" stroke="none" font-family="Helvetica" font-size="13px" font-style="normal" font-weight="bold" text-decoration="none" x="292.300537109375" y="534.5">Motors joint or wheeled</text></g></g><g transform="translate(-10,-18) scale(1,1)"><path fill="#ffffff" stroke="none" d="M 500 40 L 600 40 L 610 50 L 610 130 L 500 130 L 500 40"/></g><g transform="translate(-10,-18) scale(1,1)"><path fill="none" stroke="#000000" d="M 500 40 L 600 40 L 610 50 L 610 130 L 500 130 L 500 40 L 500 40" stroke-miterlimit="10"/></g><g transform="translate(-10,-18) scale(1,1)"><path fill="none" stroke="#000000" d="M 600 40 L 600 50 L 610 50 L 600 40" stroke-miterlimit="10"/></g><g transform="translate(-10,-18) scale(1,1)"><g><path fill="none" stroke="none"/><text fill="#000000" stroke="none" font-family="Helvetica" font-size="13px" font-style="normal" font-weight="normal" text-decoration="none" x="505" y="58">stm32f10x_lib</text></g></g><g transform="translate(-10,-18) scale(1,1)"><g><path fill="none" stroke="none"/><text fill="#000000" stroke="none" font-family="Helvetica" font-size="13px" font-style="normal" font-weight="normal" text-decoration="none" x="505" y="73">Used extensively</text></g></g><g transform="translate(-10,-18) scale(1,1)"><g><path fill="none" stroke="none"/><text fill="#000000" stroke="none" font-family="Helvetica" font-size="13px" font-style="normal" font-weight="normal" text-decoration="none" x="505" y="88">throughout the</text><text fill="#000000" stroke="none" font-family="Helvetica" font-size="13px" font-style="normal" font-weight="normal" text-decoration="none" x="505" y="101">system</text></g></g><g transform="translate(-10,-18) scale(1,1)"><path fill="none" stroke="#000000" d="M 485 141 L 499 130" stroke-miterlimit="10" stroke-dasharray="3"/></g></g></svg>